                                 $$TheAaax9$$
                                --------------

++++++++++++++++++++++++++++++++++++++++++++++++++++++++++++++++++++++++++

Present by TheAaax9
--------------------

Sample Include In Torrent

========================================================================== 

General
Complete name                    : Tron legacy Hindi Scam_TheAaax9.avi
Format                           : AVI
Format/Info                      : Audio Video Interleave
File size                        : 700 MiB
Duration                         : 1h 57mn
Overall bit rate                 : 829 Kbps

Video
ID                               : 0
Format                           : MPEG-4 Visual
Format profile                   : AdvancedSimple@L5
Format settings, BVOP            : Yes
Format settings, QPel            : No
Format settings, GMC             : No warppoints
Format settings, Matrix          : Custom
Codec ID                         : XVID
Codec ID/Hint                    : XviD
Duration                         : 1h 57mn
Bit rate                         : 708 Kbps
Width                            : 608 pixels
Height                           : 272 pixels
Display aspect ratio             : 2.25:1
Frame rate                       : 25.000 fps
Resolution                       : 24 bits
Colorimetry                      : 4:2:0
Scan type                        : Progressive
Bits/(Pixel*Frame)               : 0.171
Stream size                      : 598 MiB (85%)

==========================================================================

Audio
ID                               : 1
Format                           : MPEG Audio
Format version                   : Version 1
Format profile                   : Layer 3
Codec ID                         : 55
Codec ID/Hint                    : MP3
Duration                         : 1h 57mn
Bit rate mode                    : Variable
Bit rate                         : 108 Kbps
Nominal bit rate                 : 128 Kbps
Channel(s)                       : 2 channels
Sampling rate                    : 48.0 KHz
Resolution                       : 16 bits
Stream size                      : 91.3 MiB (13%)
Alignment                        : Aligned on interleaves
Interleave, duration             : 24 ms (0.60 video frame)
Interleave, preload duration     : 545 ms
Writing library                  : LAME3.98r

==========================================================================

Present by TheAaax9
--------------------

Sample Include In Torrent

++++++++++++++++++++++++++++++++++++++++++++++++++++++++++++++++++++++++++

                                 $$TheAaax9$$
                                --------------